# xmcd
#
# Track frame offsets:
#	150
#	16788
#	29719
#	42000
#	45441
#	62481
#	89827
#	99409
#	115720
#	131152
#	143232
#	147215
#	167385
#
# Disc length: 2457 seconds
#
# Revision: 1
# Processed by: cddbd v1.5.1PL0 Copyright (c) Steve Scherf et al.
# Submitted via: EasyCDDAExtractor 6.5.9.5
#
DISCID=a909970d
DTITLE=Nikki Matteson - American Idle
DYEAR=2003
DGENRE=Blues
TTITLE0=Twilight Mystique
TTITLE1=Trouble In Mind
TTITLE2=Hidden Path
TTITLE3=Message
TTITLE4=Prodigal Son
TTITLE5=Black Veranda
TTITLE6=Euphoria
TTITLE7=Trouble
TTITLE8=Weeping Willow Blues
TTITLE9=Song #1
TTITLE10=The Green Light
TTITLE11=Caterpillar
TTITLE12=You Don't Know (What Love Is)
EXTD=
EXTT0=
EXTT1=
EXTT2=
EXTT3=
EXTT4=
EXTT5=
EXTT6=
EXTT7=
EXTT8=
EXTT9=
EXTT10=
EXTT11=
EXTT12=
PLAYORDER=
